<svg xmlns="http://www.w3.org/2000/svg" viewBox="0 0 157.55 81.62"><defs><style>.cls-1{fill:#ffe500;}</style></defs><g id="Layer_2" data-name="Layer 2"><g id="Info"><g id="Composite_Path" data-name="Composite Path"><path class="cls-1" d="M131.73,55.78l-7.43-1-3-8.22-4.11-.51L105.36,28.13,83.65,50.35,74.46,30.44l-5.13,1.62L48.78,0,38.38,29.1,21.16,47.88,0,81.62H157.55Zm-77.41,1V43.42L38.75,62.08l-3.09-8.54-10.3,23.9-16.91.07L26.24,50,42.45,33.56l7.48-21.74V37.74l9.89-5.5Zm48.78,3.08-2.5-3.31-16.95,23L91.09,61,71.83,77.19,86.28,52.66,105.87,34l-5.45,12.84,6.46-2.12Z"/></g></g></g></svg>